<svg xmlns="http://www.w3.org/2000/svg" width="63" height="63" viewBox="0 0 63 63">
  <metadata><?xpacket begin="﻿" id="W5M0MpCehiHzreSzNTczkc9d"?>
<x:xmpmeta xmlns:x="adobe:ns:meta/" x:xmptk="Adobe XMP Core 5.6-c142 79.160924, 2017/07/13-01:06:39        ">
   <rdf:RDF xmlns:rdf="http://www.w3.org/1999/02/22-rdf-syntax-ns#">
      <rdf:Description rdf:about=""/>
   </rdf:RDF>
</x:xmpmeta>
                                                                                                    
                                                                                                    
                                                                                                    
                                                                                                    
                                                                                                    
                                                                                                    
                                                                                                    
                                                                                                    
                                                                                                    
                                                                                                    
                                                                                                    
                                                                                                    
                                                                                                    
                                                                                                    
                                                                                                    
                                                                                                    
                                                                                                    
                                                                                                    
                                                                                                    
                                                                                                    
                           
<?xpacket end="w"?></metadata>
<defs>
    <style>
      .cls-1 {
        fill: #623394;
        fill-rule: evenodd;
      }
    </style>
  </defs>
  <path id="government-grants" class="cls-1" d="M6.1,57A1.984,1.984,0,0,1,5,55.858V55.327c0.007-.019.013-0.038,0.019-0.057a1.5,1.5,0,0,1,1.633-1.238l0.489,0c0.321,0,.641,0,0.961,0,0.415,0,.76,0,1.084.012H9.257a1.984,1.984,0,0,0,1.443-.564,2.037,2.037,0,0,0,.564-1.5c-0.008-7.61-.007-15.521,0-22.127A2.062,2.062,0,0,0,10.7,28.33a2.023,2.023,0,0,0-1.473-.569H9.153c-0.4.009-.821,0.013-1.255,0.013-0.491,0-.993-0.006-1.533-0.017A1.364,1.364,0,0,1,5.3,27.19,2.631,2.631,0,0,1,5.022,26.6L5,26.54V25.957a3.006,3.006,0,0,1,.755-0.982c7.9-5.924,15.617-11.729,24.157-18.159A5.757,5.757,0,0,1,31.209,6h0.532a4.076,4.076,0,0,1,.908.488C39.98,12.012,48.5,18.426,56.821,24.656A3.1,3.1,0,0,1,58,26.009v0.444c-0.008.024-.016,0.049-0.023,0.073a1.454,1.454,0,0,1-1.64,1.24l-0.489,0c-0.3,0-.592,0-0.885,0-0.427,0-.778,0-1.1-0.012H53.772a2,2,0,0,0-1.473.568,2.048,2.048,0,0,0-.57,1.508c0.012,7.266.012,15.366,0,22.1a2.073,2.073,0,0,0,.575,1.526,2.017,2.017,0,0,0,1.491.573h0.089c0.475-.01.941-0.016,1.382-0.016,0.424,0,.837,0,1.229.015a1.409,1.409,0,0,1,1.289.727,3.589,3.589,0,0,1,.2.441L58,55.239v0.51a3.488,3.488,0,0,0-.159.428l-0.016.05A1.655,1.655,0,0,1,56.768,57H6.1ZM16.324,27.758a2.073,2.073,0,0,0-1.531.583,2.12,2.12,0,0,0-.581,1.562c0.012,7,.012,15.047,0,21.961a2.161,2.161,0,0,0,.582,1.595,2.075,2.075,0,0,0,1.534.585h0.054c0.856-.014,1.718-0.021,2.567-0.021s1.7,0.007,2.552.021H21.58a2.2,2.2,0,0,0,1.613-.6,2.262,2.262,0,0,0,.6-1.655c-0.02-2.568-.018-5.183-0.016-7.711V44.059q0-1.317,0-2.634v-2.19c0-2.72,0-6.527.009-9.285a2.2,2.2,0,0,0-.583-1.6,2.09,2.09,0,0,0-1.546-.59H21.6c-0.817.012-1.676,0.019-2.559,0.019-0.854,0-1.73-.006-2.678-0.017H16.324Zm12.549,0a2.115,2.115,0,0,0-1.565.6,2.229,2.229,0,0,0-.588,1.624c0.012,2.659.011,6.349,0.01,8.951v1.307l0,1.1v2.429c0,2.658,0,5.4-.011,8.1a2.174,2.174,0,0,0,.579,1.589,2.088,2.088,0,0,0,1.546.587h0.052c0.8-.011,1.633-0.017,2.537-0.017,0.834,0,1.736,0,2.757.015h0.031a2.019,2.019,0,0,0,1.493-.569,2.056,2.056,0,0,0,.567-1.513c-0.011-7.518-.011-15.409,0-22.066a2,2,0,0,0-2.128-2.131h-0.04c-1.136.011-2,.016-2.792,0.016-0.858,0-1.639-.006-2.387-0.018H28.873Zm12.485,0a2.1,2.1,0,0,0-1.555.594,2.218,2.218,0,0,0-.587,1.636c0.01,2.642.009,6.331,0.008,8.931V43.7c0,2.688,0,5.458-.009,8.181a2.152,2.152,0,0,0,.577,1.573,2.059,2.059,0,0,0,1.524.584h0.042c0.852-.011,1.723-0.016,2.668-0.016,0.832,0,1.694,0,2.633.013h0.033a1.974,1.974,0,0,0,2.092-2.1c-0.012-7-.011-15.094,0-22.073a1.978,1.978,0,0,0-2.1-2.1H46.656c-0.861.008-1.783,0.014-2.708,0.014s-1.756-.007-2.528-0.021H41.358ZM31.5,9.826a2.09,2.09,0,0,0-1.326.5l-0.034.026-1.094.823L10.674,24.787H52.049l-6.821-5.129c-4.286-3.222-8.334-6.265-12.458-9.384A2.072,2.072,0,0,0,31.5,9.826ZM13,47H50v3H13V47Z"/>
</svg>
