<svg xmlns="http://www.w3.org/2000/svg" width="63" height="63" viewBox="0 0 63 63">
  <metadata><?xpacket begin="﻿" id="W5M0MpCehiHzreSzNTczkc9d"?>
<x:xmpmeta xmlns:x="adobe:ns:meta/" x:xmptk="Adobe XMP Core 5.6-c142 79.160924, 2017/07/13-01:06:39        ">
   <rdf:RDF xmlns:rdf="http://www.w3.org/1999/02/22-rdf-syntax-ns#">
      <rdf:Description rdf:about=""/>
   </rdf:RDF>
</x:xmpmeta>
                                                                                                    
                                                                                                    
                                                                                                    
                                                                                                    
                                                                                                    
                                                                                                    
                                                                                                    
                                                                                                    
                                                                                                    
                                                                                                    
                                                                                                    
                                                                                                    
                                                                                                    
                                                                                                    
                                                                                                    
                                                                                                    
                                                                                                    
                                                                                                    
                                                                                                    
                                                                                                    
                           
<?xpacket end="w"?></metadata>
<defs>
    <style>
      .cls-1 {
        fill: #623394;
        fill-rule: evenodd;
      }
    </style>
  </defs>
  <path id="healthcare" class="cls-1" d="M54.134,40.536a4.147,4.147,0,0,0-3.9-.194l-8.775,4.141v-0.45a3.847,3.847,0,0,0-3.929-3.867h-8.5a18.111,18.111,0,0,1-5.163-.779l-5.537-1.678V35.538a1.2,1.2,0,0,0-1.184-1.277H9.4A1.39,1.39,0,0,0,8,35.538V55.513a1.356,1.356,0,0,0,1.4,1.235h7.752a1.168,1.168,0,0,0,1.184-1.235V53.5l0.924,0.669A13.655,13.655,0,0,0,27.606,57h7.468a13.434,13.434,0,0,0,7.458-2.227l11.738-7.784A3.795,3.795,0,0,0,54.134,40.536Zm-38.382,13.7H10.584V36.774h5.168V54.236Zm37.06-9.317L41.075,52.7a10.806,10.806,0,0,1-6,1.79H27.606a11.016,11.016,0,0,1-6.725-2.274l-2.544-1.936V40.339l4.772,1.448a20.756,20.756,0,0,0,5.928.891h8.5a1.3,1.3,0,0,1,1.345,1.355v1.519a22.943,22.943,0,0,1-8.851.567,1.254,1.254,0,1,0-.371,2.48,21.412,21.412,0,0,0,3.3.246,26.908,26.908,0,0,0,7.732-1.16h0l0.005,0a1.3,1.3,0,0,0,.139-0.056l0.01,0L51.426,42.6a1.391,1.391,0,0,1,1.339.068,1.312,1.312,0,0,1,.65,1.141A1.334,1.334,0,0,1,52.812,44.919ZM9.973,23.505a3.977,3.977,0,0,0,3.809.2l8.689-4.14v0.45a4.065,4.065,0,0,0,4.1,3.95h8.5a17.478,17.478,0,0,1,5.077.738l5.45,1.637V28.5a1.314,1.314,0,0,0,1.357,1.234h7.752A1.2,1.2,0,0,0,55.936,28.5V8.53a1.239,1.239,0,0,0-1.227-1.279H46.956A1.351,1.351,0,0,0,45.6,8.53v2.011L44.761,9.85A13.43,13.43,0,0,0,36.5,7H29.034a13.45,13.45,0,0,0-7.458,2.25L9.838,17.044A3.8,3.8,0,0,0,9.973,23.505ZM48.183,9.764h5.168V27.226H48.183V9.764ZM11.3,19.124l11.738-7.8a10.83,10.83,0,0,1,6-1.812H36.5a10.789,10.789,0,0,1,6.639,2.3L45.6,13.766V23.7L40.913,22.3a20.128,20.128,0,0,0-5.842-.851h-8.5a1.515,1.515,0,0,1-1.517-1.437V18.491a23.666,23.666,0,0,1,8.938-.567,1.306,1.306,0,0,0,1.5-1.041,1.255,1.255,0,0,0-1.062-1.44,26.045,26.045,0,0,0-11.016.914h0l0,0a0.7,0.7,0,0,0-.073.03c-0.025.01-.05,0.018-0.074,0.03L12.681,21.443a1.391,1.391,0,0,1-1.339-.068,1.312,1.312,0,0,1-.65-1.141A1.335,1.335,0,0,1,11.3,19.124Zm21.279,8.658a4.148,4.148,0,0,0-2.037-.535,4,4,0,0,0-4.053,3.941c0,1.289.917,2.76,2.8,4.5a26.183,26.183,0,0,0,2.538,2.048,1.322,1.322,0,0,0,1.5,0,26.15,26.15,0,0,0,2.538-2.048c1.885-1.738,2.8-3.21,2.8-4.5a4,4,0,0,0-4.053-3.941A4.148,4.148,0,0,0,32.574,27.782Zm3.506,3.406c0,0.8-1.725,2.583-3.506,3.952-1.781-1.367-3.505-3.15-3.505-3.952a1.451,1.451,0,0,1,1.469-1.429,1.472,1.472,0,0,1,1.084.465,1.317,1.317,0,0,0,1.906,0,1.473,1.473,0,0,1,1.084-.464A1.451,1.451,0,0,1,36.08,31.188Z" transform="translate(-0.5 -0.5)"/>
</svg>
