<svg xmlns="http://www.w3.org/2000/svg" width="63" height="63" viewBox="0 0 63 63">
  <metadata><?xpacket begin="﻿" id="W5M0MpCehiHzreSzNTczkc9d"?>
<x:xmpmeta xmlns:x="adobe:ns:meta/" x:xmptk="Adobe XMP Core 5.6-c142 79.160924, 2017/07/13-01:06:39        ">
   <rdf:RDF xmlns:rdf="http://www.w3.org/1999/02/22-rdf-syntax-ns#">
      <rdf:Description rdf:about=""/>
   </rdf:RDF>
</x:xmpmeta>
                                                                                                    
                                                                                                    
                                                                                                    
                                                                                                    
                                                                                                    
                                                                                                    
                                                                                                    
                                                                                                    
                                                                                                    
                                                                                                    
                                                                                                    
                                                                                                    
                                                                                                    
                                                                                                    
                                                                                                    
                                                                                                    
                                                                                                    
                                                                                                    
                                                                                                    
                                                                                                    
                           
<?xpacket end="w"?></metadata>
<defs>
    <style>
      .cls-1 {
        fill: #623394;
        fill-rule: evenodd;
      }
    </style>
  </defs>
  <path id="non-profits" class="cls-1" d="M53.2,10.779A30,30,0,1,0,10.8,53.224,29.773,29.773,0,0,0,31.981,62h0.043A30,30,0,0,0,53.2,10.779Zm-3.3,41.538a27.2,27.2,0,0,1-17.913,6.759H31.958A27.161,27.161,0,0,1,5.339,36.646,26.7,26.7,0,0,1,11.684,14.1a0.958,0.958,0,0,1,.164-0.164,0.98,0.98,0,0,1,.183.156c12.34,12.36,25.084,25.1,37.88,37.88a1.063,1.063,0,0,1,.158.184A0.952,0.952,0,0,1,49.907,52.317Zm2.423-2.425a0.773,0.773,0,0,1-.179.168,1.034,1.034,0,0,1-.214-0.183C38.045,35.969,25.669,23.595,14.1,12.047a0.8,0.8,0,0,1-.16-0.2,0.985,0.985,0,0,1,.191-0.193A27.083,27.083,0,0,1,58.322,25.652a29.684,29.684,0,0,1,.764,6.527A27.033,27.033,0,0,1,52.33,49.893ZM45.848,23.577a8.8,8.8,0,0,0-4.931-6.728,12.058,12.058,0,0,0-6.111-1.165c-0.142,0-.293.018-0.439,0.031a1.75,1.75,0,0,1-.9-0.049,1.171,1.171,0,0,1-.026-0.68,3.563,3.563,0,0,0,.034-0.635,3.476,3.476,0,0,1,.033-0.568,1.475,1.475,0,0,0-.25-1.321,1.668,1.668,0,0,0-1.329-.22,3.484,3.484,0,0,1-.6.029,0.781,0.781,0,0,0-.605.162,0.809,0.809,0,0,0-.2.645c0.011,0.411.009,0.832,0.007,1.239s0,0.852.008,1.28a0.768,0.768,0,0,1,0,.1,0.87,0.87,0,0,1-.1,0c-0.952-.025-1.888-0.015-2.6,0a10.441,10.441,0,0,0-5.647,1.67l-0.354.228,0.312,0.283c0.134,0.122.268,0.239,0.4,0.354,0.288,0.252.56,0.49,0.8,0.749a1.052,1.052,0,0,0,1.485.279,3.354,3.354,0,0,1,.932-0.334c0.085-.021.17-0.043,0.254-0.066a10.3,10.3,0,0,1,2.885-.232c0.463,0.006.941,0.012,1.415-.011a0.665,0.665,0,0,1,.2.01,0.806,0.806,0,0,1,.019.232c-0.02,1.9-.015,3.833-0.01,5.7l0,0.956c0,0.037,0,.074-0.005.111a0.855,0.855,0,0,0,.209.722q0.747,0.767,1.485,1.541l0.729,0.76,0.525-.31V24.3q0-2.742,0-5.484c0-.05,0-0.105-0.01-0.16,0-.012,0-0.026,0-0.039h0c0.484,0.02.972,0.015,1.445,0.011a15.738,15.738,0,0,1,2.517.111,6.508,6.508,0,0,1,5.429,4.7,1.612,1.612,0,0,1,.018.366,0.983,0.983,0,0,0,.427,1.025,1.928,1.928,0,0,0,1.044.106c0.133-.011.258-0.02,0.375-0.02a1.3,1.3,0,0,0,1.054-.222,1.309,1.309,0,0,0,.075-1.082ZM35.691,30.626l-0.7.069,0.5,0.485c0.2,0.192.4,0.378,0.588,0.561,0.44,0.418.855,0.812,1.255,1.224a4.154,4.154,0,0,0,1.536,1.016,5.985,5.985,0,0,1,3.945,4.2,1.235,1.235,0,0,0,.287.531c0.508,0.521,1.021,1.034,1.564,1.577l0.985,0.987,0.1-.622a8.033,8.033,0,0,0-2.153-6.924A9.944,9.944,0,0,0,35.691,30.626ZM41.415,45.74c-0.322-.289-0.627-0.562-0.9-0.858a0.883,0.883,0,0,0-1.218-.191,5.629,5.629,0,0,1-1.316.461,10.829,10.829,0,0,1-2.872.222c-0.469,0-.954-0.01-1.434.015a0.652,0.652,0,0,1-.193-0.01,0.87,0.87,0,0,1-.018-0.24c0.019-1.935.013-3.9,0.008-5.8l0-.853c0-.036,0-0.073,0-0.11a0.877,0.877,0,0,0-.209-0.724q-0.74-.771-1.474-1.548l-0.736-.775-0.528.354v2.387q0,3.564,0,7.126c0,0.048,0,.1.008,0.149,0,0.013,0,.028,0,0.044H30.525c-0.49-.02-0.984-0.016-1.462-0.012a16.183,16.183,0,0,1-2.5-.108,6.534,6.534,0,0,1-5.4-4.581,1.78,1.78,0,0,1-.024-0.415,1.06,1.06,0,0,0-.453-1.092,1.822,1.822,0,0,0-.989-0.105,2.648,2.648,0,0,1-.515.008,1.018,1.018,0,0,0-.87.2,1.116,1.116,0,0,0-.194.96,8.739,8.739,0,0,0,4.219,6.5A11.5,11.5,0,0,0,29.2,48.316c0.133,0,.275-0.017.412-0.029a1.782,1.782,0,0,1,.919.05,1.191,1.191,0,0,1,.026.682,3.609,3.609,0,0,0-.034.638,3.446,3.446,0,0,1-.033.566,1.427,1.427,0,0,0,.265,1.323,1.2,1.2,0,0,0,.8.225c0.152,0,.308-0.012.463-0.023a3.955,3.955,0,0,1,.6-0.015,0.843,0.843,0,0,0,.656-0.169,0.886,0.886,0,0,0,.208-0.715c-0.012-.363-0.009-0.736-0.006-1.1,0-.424.007-0.863-0.013-1.3a0.677,0.677,0,0,1,0-.144,0.869,0.869,0,0,1,.171-0.006c0.854,0.028,1.723.018,2.535,0a10.416,10.416,0,0,0,5.63-1.666l0.35-.226-0.306-.283C41.7,46,41.558,45.868,41.415,45.74Zm-13.478-12.3q0.2,0,.409-0.007l0.76-.027-0.547-.529c-0.22-.212-0.43-0.411-0.633-0.6-0.435-.412-0.846-0.8-1.225-1.2A4.45,4.45,0,0,0,25.05,30a5.98,5.98,0,0,1-3.864-4.144l-0.01-.037a0.963,0.963,0,0,0-.219-0.455c-0.543-.552-1.082-1.087-1.652-1.653l-0.932-.925-0.119.588a7.821,7.821,0,0,0,1.873,6.59A10.123,10.123,0,0,0,27.937,33.443Z" transform="translate(-0.5 -0.5)"/>
</svg>
