<svg xmlns="http://www.w3.org/2000/svg" width="63" height="63" viewBox="0 0 63 63">
  <metadata><?xpacket begin="﻿" id="W5M0MpCehiHzreSzNTczkc9d"?>
<x:xmpmeta xmlns:x="adobe:ns:meta/" x:xmptk="Adobe XMP Core 5.6-c142 79.160924, 2017/07/13-01:06:39        ">
   <rdf:RDF xmlns:rdf="http://www.w3.org/1999/02/22-rdf-syntax-ns#">
      <rdf:Description rdf:about=""/>
   </rdf:RDF>
</x:xmpmeta>
                                                                                                    
                                                                                                    
                                                                                                    
                                                                                                    
                                                                                                    
                                                                                                    
                                                                                                    
                                                                                                    
                                                                                                    
                                                                                                    
                                                                                                    
                                                                                                    
                                                                                                    
                                                                                                    
                                                                                                    
                                                                                                    
                                                                                                    
                                                                                                    
                                                                                                    
                                                                                                    
                           
<?xpacket end="w"?></metadata>
<defs>
    <style>
      .cls-1 {
        fill: #623394;
        fill-rule: evenodd;
      }
    </style>
  </defs>
  <path id="small-to-medium-size-businesses" class="cls-1" d="M62.44,13.864a1.3,1.3,0,0,0-1.2-.158L50.539,17.6a5.211,5.211,0,0,0-2.974,2.735,5.279,5.279,0,0,0-.256.739,48.472,48.472,0,0,1-8.645-3.362c-5.128-2.642-9.045-1.337-12.405,1.226-1.7.034-4.049,0.235-6.356,0.438-1.471.13-2.862,0.249-3.989,0.318a5.251,5.251,0,0,0-3.452-4.719l-10.7-3.892A1.312,1.312,0,0,0,0,12.315V38.563a1.312,1.312,0,0,0,1.313,1.313H5.146a5.278,5.278,0,0,0,4.128-2.011c0.522,0.4,1.141.862,1.79,1.349,1.532,1.152,3.208,2.41,3.944,3.026,4.887,4.091,10.763,8.509,11.933,9.278A9.634,9.634,0,0,0,31.5,53a4.819,4.819,0,0,0,3.1-.875,4.217,4.217,0,0,0,3.289-.073,4.919,4.919,0,0,0,2.434-2.435,5.109,5.109,0,0,0,3.271-.479,4.476,4.476,0,0,0,2.133-2.147,4.125,4.125,0,0,0,2.867-.915,4.252,4.252,0,0,0,1.72-3.893L53.64,40.34a5.259,5.259,0,0,0,4.214,2.16h3.833A1.312,1.312,0,0,0,63,41.188V14.94A1.313,1.313,0,0,0,62.44,13.864ZM7.6,35.547a2.638,2.638,0,0,1-2.458,1.7H2.625V14.189l8.939,3.25a2.626,2.626,0,0,1,1.561,3.387ZM47,43.99a1.17,1.17,0,0,1-1.345.254c-0.014-.014-0.036-0.013-0.051-0.026s-0.038-.055-0.065-0.076C44.6,43.4,40.4,39.1,37.8,36.389A1.312,1.312,0,0,0,35.9,38.2c0.61,0.636,5.505,5.734,7.464,7.518a1.813,1.813,0,0,1-.952,1.068,2.024,2.024,0,0,1-2.046.046c-0.01-.009-0.024-0.009-0.034-0.017s-0.023-.035-0.04-0.048c-1.574-1.258-5.523-5.453-6.416-6.425a1.313,1.313,0,0,0-1.933,1.776c0.043,0.047,3.913,4.221,6.087,6.16a2.306,2.306,0,0,1-1.207,1.369,1.713,1.713,0,0,1-1.793-.267c-1.885-1.6-5.667-5.624-6.411-6.42A1.312,1.312,0,1,0,26.7,44.755c0.882,0.944,3.489,3.707,5.471,5.578a5.666,5.666,0,0,1-.675.043,7.213,7.213,0,0,1-3.117-1.051c-0.92-.605-6.7-4.917-11.688-9.095C15.94,39.6,14.217,38.3,12.64,37.116c-0.845-.635-1.623-1.219-2.2-1.661l4.914-13.1c1.276-.056,2.976-0.2,4.776-0.362,1.018-.09,2.037-0.177,3.011-0.253-1.5,1.536-3.722,4.288-3.429,6.868a3.783,3.783,0,0,0,1.86,2.828c2.144,1.342,6.114.217,8.026-2.135a9.121,9.121,0,0,0,2.979-.945c1.538,1.446,3.6,3.145,5.767,4.931,3.771,3.107,8.045,6.629,9.176,8.6A1.582,1.582,0,0,1,47,43.99Zm2.252-4.221C47.5,37.43,43.71,34.3,40.016,31.257c-2.462-2.029-4.787-3.945-6.275-5.433a1.318,1.318,0,0,0-1.547-.23,7.583,7.583,0,0,1-3.449,1.164,1.314,1.314,0,0,0-.979.606c-1.029,1.633-3.89,2.41-4.8,1.843a1.166,1.166,0,0,1-.643-0.9c-0.127-1.116,1-3.049,2.879-4.926,4.644-4.643,7.964-5.552,12.259-3.337a50.914,50.914,0,0,0,9.8,3.742,5.281,5.281,0,0,0,.157.588l5.1,13.59Zm11.126,0.107H57.854a2.638,2.638,0,0,1-2.458-1.7l-5.521-14.72a2.626,2.626,0,0,1,1.561-3.389l8.939-3.25V39.876h0Z" transform="translate(0 -0.5)"/>
</svg>
